<?xml version="1.0" encoding="iso-8859-1"?>
<!-- Generator: Adobe Illustrator 19.0.0, SVG Export Plug-In . SVG Version: 6.00 Build 0)  -->
<svg version="1.1" id="Capa_1" xmlns="http://www.w3.org/2000/svg" x="0px" y="0px"
     viewBox="0 0 512 512" style="enable-background:new 0 0 512 512;" xml:space="preserve">
	<g fill="#FFFFFF">
		<path d="M190.72,354.56h-21.76c0,5.12,0,10.24,2.56,14.08c2.56,3.84,6.4,6.4,8.96,10.24c2.56,3.84,6.4,5.12,11.52,6.4
			c5.12,1.28,8.96,1.28,14.08,1.28s10.24-1.28,15.36-2.56c5.12-1.28,10.24-3.84,12.8-6.4c2.56-2.56,6.4-6.4,7.68-10.24
			c1.28-3.84,2.56-8.96,2.56-14.08s-1.28-10.24-5.12-15.36s-7.68-7.68-14.08-10.24c3.84-1.28,5.12-2.56,7.68-3.84
			c2.56-1.28,2.56-2.56,5.12-5.12c2.56-2.56,2.56-5.12,3.84-6.4c1.28-1.28,1.28-3.84,1.28-6.4c0-5.12-1.28-10.24-2.56-14.08
			c-1.28-3.84-5.12-7.68-7.68-10.24c-2.56-2.56-6.4-5.12-11.52-6.4c-5.12-1.28-10.24-2.56-15.36-2.56s-8.96,1.28-14.08,2.56
			c-5.12,1.28-7.68,3.84-11.52,6.4c-3.84,2.56-6.4,5.12-7.68,8.96c-1.28,3.84-2.56,7.68-2.56,12.8H192c0-2.56,1.28-3.84,1.28-5.12
			s1.28-2.56,2.56-3.84c1.28-1.28,3.84-1.28,5.12-2.56c1.28-1.28,2.56-1.28,5.12-1.28s3.84,1.28,6.4,1.28
			c2.56,0,3.84,1.28,5.12,2.56c1.28,1.28,1.28,3.84,2.56,5.12c1.28,1.28,1.28,2.56,1.28,5.12c0,5.12,0,8.96-3.84,11.52
			c-3.84,2.56-7.68,3.84-12.8,3.84h-10.24v15.36h11.52c2.56,0,6.4,1.28,7.68,1.28s3.84,1.28,5.12,2.56
			c1.28,1.28,2.56,2.56,3.84,5.12c1.28,2.56,1.28,5.12,1.28,7.68c0,2.56,0,3.84-1.28,6.4c-1.28,2.56-2.56,3.84-3.84,5.12
			c-1.28,1.28-3.84,1.28-5.12,2.56c-1.28,1.28-3.84,1.28-6.4,1.28c-2.56,0-3.84-1.28-6.4-1.28s-2.56-1.28-5.12-2.56
			s-2.56-2.56-3.84-3.84C190.72,358.4,190.72,357.12,190.72,354.56z"/>
        <path d="M256,102.4V0L128,128l128,128V153.6c84.48,0,153.6,69.12,153.6,153.6S340.48,460.8,256,460.8s-153.6-69.12-153.6-153.6
			H51.2C51.2,419.84,143.36,512,256,512s204.8-92.16,204.8-204.8S368.64,102.4,256,102.4z"/>
        <path d="M288,382.72c5.12,1.28,8.96,2.56,15.36,2.56s11.52,0,15.36-2.56c3.84-2.56,7.68-5.12,11.52-8.96s6.4-8.96,7.68-14.08
			c1.28-5.12,2.56-12.8,2.56-20.48V320c0-7.68-1.28-15.36-2.56-20.48c-1.28-5.12-5.12-10.24-7.68-14.08s-6.4-7.68-11.52-8.96
			c-5.12-1.28-8.96-2.56-15.36-2.56s-11.52,0-15.36,2.56c-3.84,2.56-7.68,5.12-11.52,8.96s-6.4,8.96-7.68,14.08
			c-1.28,5.12-2.56,12.8-2.56,20.48v19.2c0,7.68,1.28,15.36,2.56,20.48c1.28,5.12,5.12,10.24,7.68,14.08S282.88,381.44,288,382.72z
			 M288,317.44c0-5.12,1.28-10.24,1.28-12.8c0-2.56,1.28-6.4,2.56-7.68c1.28-1.28,3.84-2.56,5.12-3.84
			c1.28-1.28,3.84-1.28,6.4-1.28s3.84,1.28,6.4,1.28c2.56,0,3.84,2.56,5.12,3.84c1.28,1.28,1.28,3.84,2.56,7.68
			c1.28,3.84,1.28,7.68,1.28,12.8v24.32c0,5.12-1.28,10.24-1.28,12.8s-1.28,6.4-2.56,7.68c-1.28,1.28-3.84,2.56-5.12,3.84
			c-1.28,1.28-3.84,1.28-6.4,1.28s-3.84-1.28-6.4-1.28c-2.56,0-3.84-2.56-5.12-3.84c-1.28-1.28-1.28-3.84-2.56-7.68
			c-1.28-3.84-1.28-7.68-1.28-12.8V317.44z"/>
	</g>
</svg>
